<svg width="32" height="32" viewBox="0 0 32 32" fill="none" xmlns="http://www.w3.org/2000/svg">
<rect width="32" height="32" rx="6" fill="#124E66"/>
<path d="M7.48 24L7.74 22.726L11.25 22.336H11.796L11.484 24H7.48ZM9.456 24L11.172 14.978C11.4147 13.6433 11.6487 12.3 11.874 10.948C12.1167 9.596 12.342 8.25267 12.55 6.918H16.528L14.812 15.914C14.552 17.266 14.3007 18.618 14.058 19.97C13.8153 21.322 13.59 22.6653 13.382 24H9.456ZM10.366 8.192L10.626 6.918H14.656L14.37 8.582H13.772L10.366 8.192ZM11.328 24L11.588 22.674H20.142L18.192 23.948L19.96 19.45H21.78L20.74 24H11.328ZM12.888 15.94L13.148 14.536H18.582L18.322 15.94H12.888ZM14.214 8.27L14.474 6.918H23.054L22.404 11.416H20.584L20.48 6.97L21.884 8.27H14.214ZM17.698 17.994L17.724 15.368L17.828 14.9L18.764 12.378H20.064L18.998 17.994H17.698Z" fill="#F7F5F1"/>
</svg>
